<?xml version="1.0" encoding="utf-8"?><svg version="1.1" id="Layer_1" xmlns="http://www.w3.org/2000/svg" xmlns:xlink="http://www.w3.org/1999/xlink" x="0px" y="0px" viewBox="0 0 120.66 122.88" style="enable-background:new 0 0 120.66 122.88" xml:space="preserve"><style type="text/css">.st0{fill-rule:evenodd;clip-rule:evenodd;}</style><g><path class="st0" d="M27.42,52.55l5.09-0.13l1.69-0.04l4.23,4.37c0.86,1,1.75,2.01,2.72,2.98c-0.23,1.42-6.26,6.09-9.32,8.43 c-2.38,0.92-4.75,1.86-7.04,2.82l6.48,18.36l29,0.34c-0.09,0.97-0.14,1.95-0.14,2.94c0,8.36,3.39,15.93,8.87,21.4 c5.48,5.48,13.05,8.87,21.4,8.87c8.36,0,15.93-3.39,21.4-8.87c5.48-5.48,8.87-13.05,8.87-21.4c0-8.36-3.39-15.93-8.87-21.4 c-5.48-5.48-13.05-8.87-21.4-8.87c-6.18,0-11.93,1.85-16.73,5.04c-2.56-2.14-5.88-4.95-6.88-6.48c1.63-1.44,3.01-3.08,4.36-4.71 c0.39-0.47,1.09-1.3,1.84-2.18c0.48-0.56,0.97-1.15,1.43-1.7h4.74c7.4-15.86,2.71-39.39-12.44-49.36C62.08-0.12,58.73,0,53.29,0 c-6.24,0-9.43,0.2-14.78,3.73C30.62,8.95,25.78,17.97,23.74,30.5C23.33,36.73,23.05,47.52,27.42,52.55L27.42,52.55z M85.49,83.47 c0.15,0.04,0.26,0.18,0.26,0.35v24.01c0,0.24-0.1,0.46-0.26,0.62c-0.16,0.16-0.38,0.26-0.62,0.26h-2.26c-0.24,0-0.46-0.1-0.62-0.26 l0,0l0.24,0l-0.25,0c-0.16-0.16-0.26-0.38-0.26-0.62V83.81c0-0.17,0.11-0.31,0.27-0.35l0-2.72c0.16-2.12,3.49-1.68,3.48,0.08 L85.49,83.47L85.49,83.47L85.49,83.47z M82.7,87.82h2.09v-3.65H82.7V87.82L82.7,87.82z M84.79,89.03H82.7v18.55 c0,0.04,0.02,0.08,0.05,0.11l0,0c0.03,0.03,0.07,0.05,0.11,0.05h1.77c0.04,0,0.08-0.02,0.11-0.05c0.03-0.03,0.05-0.07,0.05-0.11 V89.03L84.79,89.03L84.79,89.03z M92.19,91.94h4.2v-4.55h-4.2V91.94L92.19,91.94z M96.39,93.15h-4.2v14.68 c0,0.04,0.01,0.07,0.04,0.1l0.01,0.01c0.03,0.03,0.07,0.05,0.11,0.05h3.89c0.04,0,0.08-0.02,0.11-0.05l0,0 c0.03-0.03,0.05-0.07,0.05-0.11V93.15L96.39,93.15z M97.35,86.91v20.92c0,0.24-0.1,0.46-0.26,0.62l0,0l-0.25,0l0.24,0 c-0.16,0.16-0.38,0.26-0.62,0.26H92.1c-0.24,0-0.46-0.1-0.62-0.26c-0.01-0.01-0.02-0.02-0.02-0.03c-0.14-0.16-0.23-0.37-0.23-0.59 V86.82c0-0.02,0-0.03,0-0.05l-4.42-8.39c-0.08-0.16-0.03-0.36,0.11-0.46c2.19-1.61,4.87-2.43,7.48-2.43c2.58,0,5.09,0.81,6.96,2.45 c0.13,0.12,0.16,0.31,0.07,0.45L97.35,86.91L97.35,86.91L97.35,86.91z M66.63,73.86c0.33-0.42,0.67-0.83,1.02-1.23 c1.03-1.35,1.9-2.9,2.57-4.66c-2.16-1.84-4.42-3.88-5.54-5.45c-2.63,1.75-5.86,2.9-10.24,2.9c-4.19-0.01-7.35-1.18-9.93-2.9 c-0.49-0.33-0.96-0.67-1.41-1.03c-1.41,2.1-4.64,4.85-7.32,6.98C36.06,80.2,56.77,84.65,66.63,73.86L66.63,73.86z M90.39,67.61 c-6.9,0-13.15,2.8-17.68,7.32c-4.52,4.52-7.32,10.77-7.32,17.68c0,13.81,11.19,25,25,25c6.9,0,13.15-2.8,17.68-7.32 c4.52-4.52,7.32-10.77,7.32-17.68C115.39,78.8,104.2,67.61,90.39,67.61L90.39,67.61z M36.11,50.28 c-4.14-14.39-2.13-27.62,9.21-38.94c2.01,6.51,6.53,11.88,14.2,15.85c3.67,2.73,7.22,6.02,10.66,9.8c0.61-2.51-1.71-5.56-4.53-8.7 c2.61,1.29,5,3.09,6.7,6.56c1.97,4.02,1.95,7.42,1.29,11.78c-0.14,0.95-0.32,1.87-0.55,2.75c-0.8,0.98-1.86,2.23-2.84,3.39 c-0.66,0.79-1.29,1.53-1.85,2.2c-1.74,2.1-3.51,4.2-5.73,5.72c-2.1,1.44-4.69,2.39-8.23,2.39c-3.26-0.01-5.73-0.93-7.77-2.29 c-2.13-1.43-3.87-3.38-5.53-5.3c-0.03-0.03-0.05-0.06-0.08-0.1L36.11,50.28L36.11,50.28z M20.3,95.33c1.51,0,2.74,1.23,2.74,2.74 c0,1.51-1.23,2.74-2.74,2.74c-1.51,0-2.74-1.23-2.74-2.74C17.56,96.56,18.79,95.33,20.3,95.33L20.3,95.33z M13.11,106.11 c-2.71,0.02-5.34,0.05-7.88,0.09c-5.08,0.09-5.6,0.45-5.07-6.78c1.73-8.2,0.75-7.12,5.02-15.12c1.61-3.03,3.67-4.91,7.66-7.41 c1.48-0.93,3.08-1.82,4.78-2.67c1.34,3.77,3.6,9.55,3.74,15.1H17.1c-2.2,0-3.99,1.8-3.99,3.99V106.11L13.11,106.11z"/></g></svg>